<svg width="46" height="46" viewBox="0 0 46 46" fill="none" xmlns="http://www.w3.org/2000/svg">
<path d="M39.5313 21.5952L32.5642 17.5702L26.8333 23.1171L32.0716 28.1847L39.5313 23.8722C39.7313 23.7577 39.8973 23.5921 40.0125 23.3925C40.1276 23.1928 40.1878 22.9662 40.1868 22.7357C40.1884 22.5045 40.1286 22.2771 40.0134 22.0767C39.8982 21.8763 39.7318 21.7101 39.5313 21.5952ZM31.3816 16.886L23.7149 12.4547L6.91343 3.8335L25.8903 22.2028L31.3816 16.886ZM7.19134 42.1285L23.7437 32.9994L30.889 28.869L25.8903 24.0313L7.19134 42.1285ZM5.79218 4.57716L5.77301 41.6742L24.9454 23.1171L5.79218 4.57716Z" fill="white"/>
</svg>
