<svg width="43" height="43" viewBox="0 0 43 43" fill="none" xmlns="http://www.w3.org/2000/svg">
<g clip-path="url(#clip0_974_1431)">
<path d="M30.0516 0.0215188C29.9602 -0.0806061 26.668 0.0618314 23.8032 3.17127C20.9383 6.27802 21.379 9.84164 21.4435 9.93302C21.508 10.0244 25.5285 10.1668 28.0951 6.55214C30.6617 2.93746 30.143 0.126331 30.0516 0.0215188ZM38.958 31.554C38.829 31.296 32.7095 28.2376 33.2793 22.3573C33.849 16.4744 37.7809 14.8619 37.8427 14.6872C37.9045 14.5125 36.2382 12.5641 34.4725 11.5778C33.1761 10.8824 31.7413 10.484 30.272 10.4114C29.9817 10.4033 28.9739 10.1561 26.9019 10.7231C25.5366 11.0967 22.4594 12.3061 21.6129 12.3545C20.7636 12.4028 18.2374 10.9516 15.5203 10.5673C13.7815 10.2313 11.9379 10.9193 10.6183 11.4488C9.30142 11.9755 6.79667 13.4751 5.04442 17.4607C3.29217 21.4436 4.20861 27.7538 4.86436 29.7157C5.52011 31.6749 6.54405 34.8865 8.28555 37.2299C9.83355 39.8745 11.8868 41.71 12.7441 42.3335C13.6014 42.957 16.0202 43.3709 17.6972 42.5136C19.0463 41.6858 21.4812 41.2101 22.4433 41.2451C23.4027 41.28 25.2947 41.659 27.2324 42.6936C28.767 43.2231 30.2182 43.0027 31.6722 42.4115C33.1261 41.8175 35.2304 39.5654 37.6868 34.9993C38.6194 32.8762 39.044 31.7286 38.958 31.554Z" fill="white"/>
<path d="M30.0516 0.0215188C29.9602 -0.0806061 26.668 0.0618314 23.8032 3.17127C20.9383 6.27802 21.379 9.84164 21.4435 9.93302C21.508 10.0244 25.5285 10.1668 28.0951 6.55214C30.6617 2.93746 30.143 0.126331 30.0516 0.0215188ZM38.958 31.554C38.829 31.296 32.7095 28.2376 33.2793 22.3573C33.849 16.4744 37.7809 14.8619 37.8427 14.6872C37.9045 14.5125 36.2382 12.5641 34.4725 11.5778C33.1761 10.8824 31.7413 10.484 30.272 10.4114C29.9817 10.4033 28.9739 10.1561 26.9019 10.7231C25.5366 11.0967 22.4594 12.3061 21.6129 12.3545C20.7636 12.4028 18.2374 10.9516 15.5203 10.5673C13.7815 10.2313 11.9379 10.9193 10.6183 11.4488C9.30142 11.9755 6.79667 13.4751 5.04442 17.4607C3.29217 21.4436 4.20861 27.7538 4.86436 29.7157C5.52011 31.6749 6.54405 34.8865 8.28555 37.2299C9.83355 39.8745 11.8868 41.71 12.7441 42.3335C13.6014 42.957 16.0202 43.3709 17.6972 42.5136C19.0463 41.6858 21.4812 41.2101 22.4433 41.2451C23.4027 41.28 25.2947 41.659 27.2324 42.6936C28.767 43.2231 30.2182 43.0027 31.6722 42.4115C33.1261 41.8175 35.2304 39.5654 37.6868 34.9993C38.6194 32.8762 39.044 31.7286 38.958 31.554Z" fill="white"/>
</g>
<defs>
<clipPath id="clip0_974_1431">
<rect width="43" height="43" fill="white"/>
</clipPath>
</defs>
</svg>
