<svg width="126" height="30" viewBox="0 0 126 30" fill="none" xmlns="http://www.w3.org/2000/svg">
<path d="M72.3596 9.91309L65.9297 23.9518H59.4882V9.91309H57.8574V25.4161H66.9897L68.8418 21.2905H77.4848L79.3369 25.4161H81.0608L73.9787 9.95957L72.3596 9.91309ZM69.4358 19.9192L73.1749 11.5982L76.9024 19.9192H69.4358Z" fill="black" fill-opacity="0.6"/>
<path d="M98.1358 22.4526L96.0857 19.8727V9.91309H94.4666V17.8389L88.1532 9.91309H86.802V12.8301L84.4724 9.91309H83.1328V25.4161H84.8218V12.8301L86.8486 15.3868V25.4161H88.491V17.4554L94.7811 25.3696H96.1323V22.4526L98.462 25.3696H99.8132V9.91309H98.1941L98.1358 22.4526ZM94.4666 22.4526L88.4444 14.8871V12.8301L94.4666 20.4189V22.4526Z" fill="black" fill-opacity="0.6"/>
<path d="M103.681 18.2108H111.684V16.8162H103.681V11.3193H112.662V9.91309H102.039V25.3696H113V23.9518H103.681V18.2108Z" fill="black" fill-opacity="0.6"/>
<path d="M126 25.4163L122.214 20.1053L122.82 19.8845C123.71 19.5092 124.468 18.8781 124.998 18.0715C125.522 17.2287 125.785 16.2505 125.755 15.2591C125.788 14.2528 125.525 13.2588 124.998 12.4002C124.468 11.5936 123.71 10.9625 122.82 10.5873C121.746 10.1439 120.592 9.93008 119.43 9.95974H114.957V25.4163H116.6V20.4655H119.43C119.847 20.4632 120.263 20.436 120.676 20.3842L124.171 25.3698L126 25.4163ZM119.384 19.1174H116.6V11.3311H119.384C120.631 11.2511 121.867 11.6088 122.878 12.3421C123.277 12.702 123.588 13.1471 123.79 13.6442C123.992 14.1413 124.078 14.6775 124.043 15.2126C124.08 15.7445 123.994 16.2777 123.792 16.7713C123.59 17.2649 123.277 17.7057 122.878 18.0599C121.867 18.7933 120.631 19.1509 119.384 19.071V19.1174Z" fill="black" fill-opacity="0.6"/>
<path d="M29.2246 11.5864C29.5336 10.9749 29.6819 10.2951 29.6556 9.61077C29.6855 8.93081 29.5284 8.25564 29.2013 7.65837C28.8852 7.17277 28.4528 6.77337 27.9433 6.49622C27.3357 6.18406 26.6768 5.9833 25.998 5.90353C25.1754 5.7968 24.3464 5.74632 23.5169 5.75245H23.0859V13.7248H23.249C23.4121 13.7248 23.68 13.7248 24.0527 13.7248H25.4156C25.8918 13.718 26.3654 13.6516 26.825 13.5272C27.3229 13.3826 27.7891 13.146 28.1995 12.8299C28.6261 12.493 28.9755 12.069 29.2246 11.5864Z" fill="black" fill-opacity="0.6"/>
<path d="M35.0385 4.9624H28.0495C28.7745 5.13958 29.4613 5.44673 30.0763 5.86888C30.6429 6.27942 31.0968 6.82572 31.396 7.45738C31.6953 8.08904 31.8303 8.78572 31.7886 9.48315C31.8059 10.1967 31.6709 10.9058 31.3925 11.5634C31.1514 12.144 30.7948 12.6698 30.3442 13.109C29.8887 13.5424 29.3603 13.8925 28.7833 14.1433C28.1752 14.4099 27.538 14.6049 26.8846 14.7244L29.1444 18.2109C29.6919 19.0476 30.3092 19.8727 30.8101 20.6746C31.311 21.4765 31.975 22.3132 32.4875 23.1732C32.6273 23.3824 32.7903 23.6032 32.9767 23.8356C33.1447 24.0605 33.3317 24.2704 33.5358 24.4632C33.7239 24.642 33.9355 24.7945 34.1648 24.9164C34.372 25.0297 34.6042 25.0896 34.8404 25.0908H35.0035C35.168 25.0915 35.3265 25.0291 35.4462 24.9164C35.5785 24.7881 35.6887 24.6389 35.7723 24.4748C35.8659 24.2986 35.9364 24.1111 35.982 23.917C35.998 23.7314 35.998 23.5448 35.982 23.3592V6.58941C35.9965 6.42315 35.9965 6.25594 35.982 6.08968C35.9366 5.90285 35.8661 5.72302 35.7723 5.5551C35.6856 5.39987 35.5756 5.25878 35.4462 5.13672C35.3354 5.03204 35.1908 4.97022 35.0385 4.9624Z" fill="black" fill-opacity="0.6"/>
<path d="M49.2495 11.1797H44.3223V18.7336H49.2495C50.2535 18.7336 51.2164 18.3357 51.9264 17.6274C52.6363 16.9191 53.0352 15.9584 53.0352 14.9567C53.0352 13.9549 52.6363 12.9943 51.9264 12.2859C51.2164 11.5776 50.2535 11.1797 49.2495 11.1797Z" fill="black" fill-opacity="0.6"/>
<path d="M50.146 8.92527V4.35804C50.146 3.20222 49.6857 2.09373 48.8666 1.27644C48.0474 0.45915 46.9363 0 45.7778 0H4.36811C3.20962 0 2.09857 0.45915 1.27939 1.27644C0.46021 2.09373 0 3.20222 0 4.35804V11.1798H0.873623C1.87765 11.1798 2.84056 11.5778 3.55052 12.2861C4.26047 12.9944 4.65932 13.9551 4.65932 14.9568C4.65932 15.9585 4.26047 16.9192 3.55052 17.6275C2.84056 18.3358 1.87765 18.7338 0.873623 18.7338H0V25.5556C0 26.7114 0.46021 27.8199 1.27939 28.6372C2.09857 29.4545 3.20962 29.9136 4.36811 29.9136H45.7545C46.913 29.9136 48.0241 29.4545 48.8433 28.6372C49.6624 27.8199 50.1227 26.7114 50.1227 25.5556V20.9883H50.2158C51.6601 20.7602 52.9746 20.0234 53.9211 18.9113C54.8676 17.7993 55.3834 16.3857 55.3749 14.9269C55.3665 13.468 54.8344 12.0605 53.8751 10.9594C52.9158 9.85836 51.5928 9.13671 50.146 8.92527ZM39.3946 4.96236H39.2315C39.0784 4.96695 38.9327 5.02923 38.8238 5.13668C38.6982 5.25492 38.592 5.39219 38.5093 5.54343C38.4188 5.7116 38.3521 5.89152 38.3113 6.07802C38.2602 6.2438 38.2327 6.41594 38.2297 6.58936V25.4161H33.5704C32.8336 25.4458 32.1079 25.229 31.5087 24.8002C30.947 24.397 30.4618 23.8972 30.0759 23.3242C29.1324 21.9413 28.2006 20.5467 27.257 19.1173C26.3135 17.6878 25.4166 16.2933 24.5197 14.9568L23.7858 14.8755C23.5504 14.8374 23.3171 14.787 23.0869 14.7244V25.4161H13.0927V5.81072H9.43513C9.12905 5.80223 8.82661 5.87867 8.56151 6.03153C8.31408 6.16517 8.09929 6.35168 7.9325 6.57774C7.75966 6.79138 7.62921 7.03592 7.5481 7.29827C7.46782 7.54626 7.42464 7.80472 7.41997 8.06528H7.10547V4.64858H39.3946V4.96236ZM50.1693 20.4073L48.422 20.477H44.3218V25.4161H42.5746V9.43662H48.3987L50.146 9.50635C51.4448 9.71429 52.6269 10.3771 53.4802 11.376C54.3336 12.3749 54.8022 13.6444 54.8022 14.9568C54.8022 16.2692 54.3336 17.5388 53.4802 18.5376C52.6269 19.5365 51.4448 20.1993 50.146 20.4073H50.1693Z" fill="black" fill-opacity="0.6"/>
<path d="M20.7574 7.29824C20.6763 7.03589 20.5459 6.79135 20.373 6.57771C20.2062 6.35165 19.9914 6.16514 19.744 6.0315C19.4789 5.87864 19.1765 5.8022 18.8704 5.8107H15.2012V23.3242C15.2045 23.5115 15.2239 23.6981 15.2594 23.882C15.3027 24.0732 15.3733 24.2571 15.4691 24.4283C15.5576 24.5863 15.6631 24.7344 15.7836 24.8699C15.8353 24.9299 15.8998 24.9777 15.9723 25.0099C16.0448 25.0421 16.1236 25.0577 16.2029 25.0558H19.9304C20.0074 25.0539 20.0832 25.0364 20.1533 25.0044C20.2234 24.9725 20.2862 24.9267 20.3381 24.8699C20.6027 24.5948 20.7878 24.2535 20.8739 23.882C20.8957 23.6967 20.8957 23.5095 20.8739 23.3242V8.06526C20.873 7.80527 20.8337 7.54683 20.7574 7.29824Z" fill="black" fill-opacity="0.6"/>
</svg>
