<svg width="148" height="104" viewBox="0 0 148 104" fill="none" xmlns="http://www.w3.org/2000/svg">
<path d="M35.0771 39C38.6767 39.0026 42.1281 40.4337 44.6734 42.979C47.2187 45.5242 48.6497 48.9757 48.6523 52.5752C48.6523 56.7092 46.7998 60.3882 43.9008 62.894C47.0422 66.6833 48.7578 71.4529 48.7498 76.375C48.7498 88.0262 39.2761 97.5 27.6248 97.5C22.5159 97.5031 17.5791 95.6544 13.7289 92.2963C9.87862 88.9383 7.37599 84.2986 6.6846 79.2367C5.99321 74.1748 7.15992 69.0339 9.96858 64.7663C12.7773 60.4988 17.0375 57.3938 21.9601 56.0268C21.6676 54.9218 21.5051 53.7485 21.5051 52.5752C21.5077 48.9762 22.9383 45.5253 25.4829 42.9801C28.0275 40.4349 31.4781 39.0034 35.0771 39ZM82.4946 52.5752C82.4946 53.7777 82.3321 54.9185 82.0396 56.0268C86.4788 57.2747 90.39 59.9362 93.18 63.6077C95.97 67.2792 97.4866 71.7605 97.4998 76.3717C97.4955 81.9734 95.2686 87.3445 91.3079 91.3058C87.3472 95.2671 81.9765 97.4948 76.3748 97.5C70.7737 97.4948 65.4035 95.2675 61.4429 91.3069C57.4823 87.3463 55.255 81.9761 55.2498 76.375C55.2498 71.2627 57.0698 66.5405 60.0988 62.894C58.6102 61.6179 57.4149 60.0352 56.5948 58.2542C55.7747 56.4732 55.3492 54.536 55.3473 52.5752C55.3499 48.9762 56.7805 45.5253 59.3251 42.9801C61.8697 40.4349 65.3203 39.0034 68.9193 39C72.5189 39.0026 75.9703 40.4337 78.5156 42.979C81.0609 45.5242 82.492 48.9757 82.4946 52.5752Z" fill="#E6E6E6"/>
<path d="M87.75 97.5H16.25V94.25C16.25 74.5063 32.2563 58.5 52 58.5C71.7437 58.5 87.75 74.5063 87.75 94.25V97.5Z" fill="#FF6723"/>
<path d="M58.5975 57.1675C58.5975 58.24 59.3125 59.15 60.3525 59.41C63.1247 60.086 65.7735 61.0838 68.25 62.361L51.9188 97.3375L35.75 62.2895C38.1875 61.0448 40.7908 60.073 43.5175 59.41C44.5575 59.15 45.2725 58.24 45.2725 57.1675V50.765C45.2725 47.0925 48.2625 44.1025 51.935 44.1025C55.6075 44.1025 58.5975 47.0925 58.5975 50.765V57.1675Z" fill="#B87A66"/>
<path d="M34.5675 55.25C35.9975 53.0628 38.5975 50.7878 41.0675 50.375C42.621 52.2437 43.596 52.9913 45.9425 53.625V56.875C45.9425 57.9215 45.2925 59.059 44.3175 59.3125C42.9167 59.7253 41.4965 60.9375 42.6925 64.1875L52.2215 88.608L61.7505 64.1875C62.9465 60.9375 61.5262 59.7253 60.1255 59.3125C59.1505 59.059 58.5005 57.9215 58.5005 56.875V53.625C60.8437 52.9913 61.822 52.2437 63.3755 50.375C65.8422 50.7878 68.4455 53.0628 69.8755 55.25C71.5817 57.8825 72.5665 62.023 71.5005 65L58.5557 97.5H45.884L32.9425 65C31.8765 62.023 32.8612 57.8825 34.5675 55.25Z" fill="#FF8101"/>
<path d="M72.0954 17.186C71.177 15.5659 69.6972 14.3381 67.9354 13.7345C66.0876 13.12 64.5157 11.8737 63.4959 10.2147C62.8204 9.08502 61.8641 8.14923 60.72 7.49831C59.5759 6.84739 58.2829 6.50349 56.9666 6.5C55.9071 6.5 54.8964 6.7275 53.9766 7.1175C52.7189 7.66025 51.3116 7.66025 50.0571 7.1175C48.3792 6.39833 46.499 6.30454 44.7578 6.85313C43.0166 7.40173 41.5298 8.55636 40.5671 10.1075C39.5121 11.8037 37.9108 13.0898 36.0269 13.754C34.1893 14.4021 32.6657 15.7225 31.7629 17.4492C31.1094 18.705 30.8079 20.1143 30.8903 21.5275C30.9726 22.9408 31.4359 24.3054 32.2309 25.4767C32.8061 26.3217 33.1181 27.326 33.1181 28.3465V30.3452C33.4691 30.0982 33.9469 30.4525 34.4409 30.8165C34.8764 31.1382 35.3249 31.4697 35.7149 31.4145V28.3465C35.7149 24.8527 37.2034 25.7075 39.6051 27.0887C41.4154 28.1287 43.7456 29.4677 46.3489 29.4677H50.5284C50.9633 29.4687 51.388 29.5998 51.7477 29.8442C52.1074 30.0887 52.3857 30.4352 52.5466 30.8392C53.1349 32.162 53.5509 30.901 54.1261 29.146C54.8086 27.066 55.7154 24.2937 57.4151 24.2937H62.0106C63.2215 24.3533 64.364 24.8728 65.2048 25.7462C66.0455 26.6196 66.5212 27.781 66.5346 28.9932L66.3786 32.3667C66.7361 32.4317 67.5941 31.902 68.4749 31.3625C69.4889 30.7417 70.5321 30.1015 70.8604 30.329V28.3465C70.8604 27.326 71.1724 26.3217 71.7476 25.4767C72.5821 24.2685 73.0575 22.8487 73.119 21.3816C73.1806 19.9145 72.8257 18.4599 72.0954 17.186ZM33.3131 35.75H37.7136V48.308C36.4048 47.7656 35.2872 46.8456 34.5034 45.6653C33.7197 44.485 33.3053 43.098 33.3131 41.6812V35.75ZM70.6881 35.75H66.2876V48.308C67.5965 47.7656 68.7141 46.8456 69.4978 45.6653C70.2816 44.485 70.696 43.098 70.6881 41.6812V35.75Z" fill="#593B39"/>
<path d="M41.4375 34.5312C41.4375 35.9319 40.8811 37.2752 39.8907 38.2657C38.9002 39.2561 37.5569 39.8125 36.1562 39.8125C34.7556 39.8125 33.4123 39.2561 32.4218 38.2657C31.4314 37.2752 30.875 35.9319 30.875 34.5312C30.875 33.1306 31.4314 31.7873 32.4218 30.7968C33.4123 29.8064 34.7556 29.25 36.1562 29.25C37.5569 29.25 38.9002 29.8064 39.8907 30.7968C40.8811 31.7873 41.4375 33.1306 41.4375 34.5312ZM73.125 34.5312C73.125 35.9319 72.5686 37.2752 71.5782 38.2657C70.5877 39.2561 69.2444 39.8125 67.8438 39.8125C66.4431 39.8125 65.0998 39.2561 64.1093 38.2657C63.1189 37.2752 62.5625 35.9319 62.5625 34.5312C62.5625 33.1306 63.1189 31.7873 64.1093 30.7968C65.0998 29.8064 66.4431 29.25 67.8438 29.25C69.2444 29.25 70.5877 29.8064 71.5782 30.7968C72.5686 31.7873 73.125 33.1306 73.125 34.5312Z" fill="#BB806E"/>
<path d="M34.5306 29.6404L35.5056 44.0314C36.3896 50.4599 42.0673 55.2504 48.7883 55.2504H55.2363C61.9606 55.2504 67.6383 50.4632 68.5191 44.0282L69.4551 29.6372C69.2306 29.5654 69.0015 29.509 68.7693 29.4682L68.9253 26.0947C68.9127 24.8818 68.4374 23.7196 67.5965 22.8455C66.7557 21.9715 65.6128 21.4515 64.4013 21.3919H59.7993C58.2612 21.3893 56.7569 20.9405 55.4688 20.1001C54.1806 19.2596 53.164 18.0634 52.5421 16.6567C52.3811 16.2526 52.1028 15.9061 51.7431 15.6616C51.3834 15.4172 50.9587 15.2861 50.5238 15.2852H46.3443C40.2863 15.2852 35.3788 20.2479 35.3788 26.3742V29.4422C35.0863 29.4844 34.8003 29.5527 34.5273 29.6404H34.5306Z" fill="#C68D7B"/>
<path d="M50.8458 33.4196L49.2338 39.1071C48.8991 40.2706 49.6888 41.4341 50.8133 41.4341H53.1858C54.3103 41.4341 55.1033 40.2706 54.7653 39.1071L53.1533 33.4196C53.094 33.1579 52.9475 32.9242 52.7379 32.7567C52.5282 32.5893 52.2679 32.498 51.9996 32.498C51.7313 32.498 51.4709 32.5893 51.2613 32.7567C51.0516 32.9242 50.9051 33.1579 50.8458 33.4196Z" fill="#AB6A55"/>
<path d="M39.6721 33.5045C40.1596 31.392 41.9796 29.8223 44.1571 29.8223C46.4321 29.8223 48.2846 31.4928 48.6746 33.7418C48.7721 34.2553 48.4146 34.6973 47.9271 34.6973H40.5496C39.9646 34.6973 39.5421 34.1188 39.6721 33.5045ZM64.5021 33.5045C64.0146 31.392 62.1946 29.8223 60.0171 29.8223C57.7746 29.8223 55.8896 31.4928 55.4996 33.7418C55.4021 34.2553 55.7596 34.6973 56.2471 34.6973H63.6246C64.2096 34.6973 64.6321 34.1188 64.5021 33.5045Z" fill="white"/>
<path d="M41.8828 33.8745C41.8828 32.1553 43.2153 30.748 44.8403 30.748C46.4978 30.748 47.8303 32.1228 47.7978 33.8745C47.7978 34.1475 47.7653 34.4238 47.7003 34.6968H41.9803C41.916 34.4274 41.8833 34.1515 41.8828 33.8745ZM62.2928 33.8745C62.2928 32.1553 60.9603 30.748 59.3353 30.748C57.7103 30.748 56.3778 32.1228 56.3778 33.8745C56.3778 34.1475 56.4103 34.4238 56.4753 34.6968H62.1953C62.2603 34.4238 62.2928 34.1475 62.2928 33.8745Z" fill="#7D4533"/>
<path d="M44.8406 32.0911C45.7831 32.0911 46.5306 32.8776 46.5306 33.8754C46.5363 34.1616 46.4692 34.4445 46.3356 34.6976H43.3456C43.2127 34.4442 43.1457 34.1615 43.1506 33.8754C43.1506 32.8809 43.8981 32.0879 44.8406 32.0879V32.0911ZM59.3356 32.0911C58.3931 32.0911 57.6456 32.8776 57.6456 33.8754C57.6456 34.1841 57.7106 34.4604 57.8406 34.6976H60.8306C60.9636 34.4442 61.0306 34.1615 61.0256 33.8754C61.0256 32.8809 60.2781 32.0879 59.3356 32.0879V32.0911Z" fill="black"/>
<path d="M44.3526 32.6394C44.3552 32.7805 44.3021 32.917 44.2048 33.0192C44.1074 33.1215 43.9737 33.1812 43.8326 33.1854C43.6915 33.1812 43.5578 33.1215 43.4604 33.0192C43.3631 32.917 43.31 32.7805 43.3126 32.6394C43.3126 32.3339 43.5466 32.0869 43.8326 32.0869C44.1218 32.0869 44.3526 32.3339 44.3526 32.6394ZM58.9451 32.6394C58.9477 32.7805 58.8946 32.917 58.7973 33.0192C58.6999 33.1215 58.5662 33.1812 58.4251 33.1854C58.284 33.1812 58.1503 33.1215 58.0529 33.0192C57.9556 32.917 57.9025 32.7805 57.9051 32.6394C57.9051 32.3339 58.1391 32.0869 58.4251 32.0869C58.7143 32.0869 58.9451 32.3339 58.9451 32.6394Z" fill="white"/>
<path d="M40.3119 25.9676H40.3184L40.3282 25.9579L40.3607 25.9351C40.5037 25.8297 40.6524 25.7321 40.8059 25.6426C42.5372 24.6278 44.5524 24.2057 46.5454 24.4401C46.6772 24.4484 46.8059 24.4835 46.9237 24.5433C47.0415 24.603 47.1458 24.6861 47.2304 24.7876C47.315 24.889 47.378 25.0066 47.4156 25.1332C47.4532 25.2598 47.4646 25.3927 47.4491 25.5238C47.4336 25.655 47.3916 25.7816 47.3255 25.8959C47.2595 26.0103 47.1708 26.11 47.065 26.1889C46.9591 26.2679 46.8383 26.3244 46.7098 26.3551C46.5814 26.3858 46.448 26.3899 46.3179 26.3674C44.7515 26.1821 43.1673 26.5105 41.8037 27.3034C41.7036 27.3645 41.606 27.4295 41.5112 27.4984L41.5014 27.5049C41.297 27.6478 41.0454 27.7067 40.7988 27.6694C40.5522 27.632 40.3293 27.5012 40.1765 27.3041C40.0236 27.1069 39.9524 26.8586 39.9776 26.6104C40.0028 26.3622 40.1225 26.1332 40.3119 25.9709V25.9676ZM64.2189 25.9676H64.2157L64.2059 25.9579L64.1734 25.9351C64.0303 25.8297 63.8817 25.7321 63.7282 25.6426C61.9968 24.6278 59.9817 24.2057 57.9887 24.4401C57.8569 24.4484 57.7282 24.4835 57.6104 24.5433C57.4926 24.603 57.3883 24.6861 57.3037 24.7876C57.2191 24.889 57.1561 25.0066 57.1185 25.1332C57.0809 25.2598 57.0695 25.3927 57.0849 25.5238C57.1004 25.655 57.1425 25.7816 57.2085 25.8959C57.2746 26.0103 57.3632 26.11 57.4691 26.1889C57.575 26.2679 57.6958 26.3244 57.8243 26.3551C57.9527 26.3858 58.0861 26.3899 58.2162 26.3674C59.7826 26.1821 61.3668 26.5105 62.7304 27.3034C62.8304 27.3645 62.928 27.4295 63.0229 27.4984L63.0327 27.5049C63.2371 27.6478 63.4886 27.7067 63.7353 27.6694C63.9819 27.632 64.2047 27.5012 64.3576 27.3041C64.5105 27.1069 64.5817 26.8586 64.5564 26.6104C64.5312 26.3622 64.4115 26.1332 64.2222 25.9709L64.2189 25.9676Z" fill="#593B39"/>
<path d="M51.9994 45.1613C50.2119 45.1613 48.5219 44.7063 47.0984 43.9458C46.6011 43.6696 46.1039 44.2578 46.4029 44.7421C47.5957 46.6531 49.6497 47.9368 51.9994 47.9368C54.3524 47.9368 56.4064 46.6531 57.5991 44.7453C57.8981 44.2578 57.3684 43.7053 56.9037 43.9458C55.3935 44.7475 53.7091 45.1649 51.9994 45.1613Z" fill="#990838"/>
<path d="M6.5 97.5H35.75C35.75 94.9373 35.2449 92.3998 34.2635 90.0324C33.2821 87.6651 31.8437 85.5144 30.0305 83.7034C28.2174 81.8923 26.065 80.4565 23.6966 79.4778C21.3281 78.4992 18.7899 77.997 16.2273 78H6.5V97.5ZM97.5 97.5H68.25C68.25 94.9373 68.7551 92.3998 69.7365 90.0324C70.7179 87.6651 72.1563 85.5144 73.9695 83.7034C75.7826 81.8923 77.935 80.4565 80.3034 79.4778C82.6719 78.4992 85.2101 77.997 87.7728 78H97.5V97.5Z" fill="#F4F4F4"/>
<path d="M79.0771 39C82.6767 39.0026 86.1281 40.4337 88.6734 42.979C91.2187 45.5242 92.6497 48.9757 92.6523 52.5752C92.6523 56.7092 90.7998 60.3882 87.9008 62.894C91.0422 66.6833 92.7578 71.4529 92.7498 76.375C92.7498 88.0262 83.2761 97.5 71.6248 97.5C66.5159 97.5031 61.5791 95.6544 57.7289 92.2963C53.8786 88.9383 51.376 84.2986 50.6846 79.2367C49.9932 74.1748 51.1599 69.0339 53.9686 64.7663C56.7773 60.4988 61.0375 57.3938 65.9601 56.0268C65.6676 54.9218 65.5051 53.7485 65.5051 52.5752C65.5077 48.9762 66.9383 45.5253 69.4829 42.9801C72.0275 40.4349 75.4781 39.0034 79.0771 39ZM126.495 52.5752C126.495 53.7777 126.332 54.9185 126.04 56.0268C130.479 57.2747 134.39 59.9362 137.18 63.6077C139.97 67.2792 141.487 71.7605 141.5 76.3717C141.496 81.9734 139.269 87.3445 135.308 91.3058C131.347 95.2671 125.977 97.4948 120.375 97.5C114.774 97.4948 109.403 95.2675 105.443 91.3069C101.482 87.3463 99.255 81.9761 99.2498 76.375C99.2498 71.2627 101.07 66.5405 104.099 62.894C102.61 61.6179 101.415 60.0352 100.595 58.2542C99.7747 56.4732 99.3492 54.536 99.3473 52.5752C99.3499 48.9762 100.781 45.5253 103.325 42.9801C105.87 40.4349 109.32 39.0034 112.919 39C116.519 39.0026 119.97 40.4337 122.516 42.979C125.061 45.5242 126.492 48.9757 126.495 52.5752Z" fill="#E6E6E6"/>
<path d="M120.375 34.125C120.375 35.7695 120.014 37.3457 119.325 38.7595C119.211 38.9894 119.152 39.2424 119.152 39.4989C119.152 39.7553 119.211 40.0083 119.325 40.2382C119.981 41.6162 120.375 43.1632 120.375 44.8045C120.376 46.1767 120.107 47.5358 119.583 48.8038C119.059 50.0719 118.289 51.2241 117.319 52.1944C116.349 53.1647 115.196 53.934 113.928 54.4584C112.66 54.9827 111.301 55.2517 109.929 55.25H82.07C80.2979 55.2535 78.554 54.8054 77.003 53.9481C75.452 53.0909 74.1449 51.8526 73.2051 50.3502C72.2653 48.8477 71.7237 47.1307 71.6314 45.3609C71.539 43.5912 71.8991 41.827 72.6775 40.235C72.7905 40.0055 72.8493 39.7531 72.8493 39.4972C72.8493 39.2414 72.7905 38.989 72.6775 38.7595C71.8766 37.0916 71.5215 35.2446 71.6468 33.3986C71.7721 31.5526 72.3735 29.7706 73.3925 28.2263L73.399 28.2132C74.5137 26.503 75.1066 24.5054 75.1053 22.464V22.4315C75.1061 19.5911 76.2351 16.8673 78.2439 14.8591C80.2527 12.8509 82.9768 11.7228 85.8173 11.7228C86.1051 11.7215 86.3886 11.6526 86.6449 11.5216C86.9012 11.3907 87.1231 11.2013 87.2928 10.9688C88.2858 9.58694 89.5932 8.46109 91.1071 7.68409C92.621 6.9071 94.2979 6.50123 95.9995 6.5C99.581 6.5 102.766 8.2745 104.706 10.9688C104.871 11.2066 105.092 11.4 105.349 11.5316C105.607 11.6632 105.893 11.7289 106.182 11.7228C109.022 11.7228 111.746 12.8509 113.755 14.8591C115.764 16.8673 116.893 19.5911 116.894 22.4315V22.464C116.894 24.5018 117.482 26.507 118.6 28.2165L118.607 28.223C118.964 28.7463 119.257 29.302 119.52 29.8902H119.504C120.063 31.187 120.375 32.6105 120.375 34.1283V34.125Z" fill="#212121"/>
<path d="M85.4375 34.5312C85.4375 35.9319 84.8811 37.2752 83.8907 38.2657C82.9002 39.2561 81.5569 39.8125 80.1562 39.8125C78.7556 39.8125 77.4123 39.2561 76.4218 38.2657C75.4314 37.2752 74.875 35.9319 74.875 34.5312C74.875 33.1306 75.4314 31.7873 76.4218 30.7968C77.4123 29.8064 78.7556 29.25 80.1562 29.25C81.5569 29.25 82.9002 29.8064 83.8907 30.7968C84.8811 31.7873 85.4375 33.1306 85.4375 34.5312ZM117.125 34.5312C117.125 35.9319 116.569 37.2752 115.578 38.2657C114.588 39.2561 113.244 39.8125 111.844 39.8125C110.443 39.8125 109.1 39.2561 108.109 38.2657C107.119 37.2752 106.562 35.9319 106.562 34.5312C106.562 33.1306 107.119 31.7873 108.109 30.7968C109.1 29.8064 110.443 29.25 111.844 29.25C113.244 29.25 114.588 29.8064 115.578 30.7968C116.569 31.7873 117.125 33.1306 117.125 34.5312Z" fill="#F4C6AD"/>
<path d="M131.75 97.5H60.25V94.25C60.25 74.5063 76.2563 58.5 96 58.5C115.744 58.5 131.75 74.5063 131.75 94.25V97.5Z" fill="#8B62BF"/>
<path d="M102.598 57.1675C102.598 58.24 103.312 59.15 104.352 59.41C107.125 60.086 109.774 61.0838 112.25 62.361L95.9188 97.3375L79.75 62.2895C82.1875 61.0448 84.7908 60.073 87.5175 59.41C88.5575 59.15 89.2725 58.24 89.2725 57.1675V50.765C89.2725 47.0925 92.2625 44.1025 95.935 44.1025C99.6075 44.1025 102.598 47.0925 102.598 50.765V57.1675Z" fill="#F4C6AD"/>
<path d="M79.7489 53.625C83.3272 50.3978 89.4989 50.375 89.4989 50.375V56.875C89.4989 59.0428 87.6854 59.4652 86.6097 59.7122C86.4797 59.7447 86.3562 59.7707 86.2522 59.8C84.8774 60.2225 85.0757 61.685 86.2522 65L96.0022 89.375L105.749 65C106.922 61.685 107.124 60.2225 105.749 59.8C105.645 59.7707 105.521 59.7447 105.391 59.7122C104.316 59.4652 102.499 59.0428 102.499 56.875V50.375C102.499 50.375 108.674 50.3978 112.249 53.625C115.314 56.3875 116.11 61.3145 115.063 64.35L102.369 97.5H89.6289L76.9344 64.35C75.8879 61.3145 76.6842 56.3875 79.7522 53.625H79.7489Z" fill="#A17FD5"/>
<path d="M79.7825 30.4717H79.815L79.7825 29.5552L79.75 28.5022C79.815 25.2295 81.5798 23.9619 82.3338 23.5427C82.3889 23.5211 82.4431 23.4972 82.4963 23.4712C82.5494 23.4452 82.6036 23.4213 82.6588 23.3997C84.4211 22.5179 85.7784 20.9943 86.4515 19.1422L86.7115 18.4759C86.9748 17.8097 87.7937 17.7025 88.187 18.3005C90.475 21.9242 94.297 24.0692 98.353 24.0692H108.623C109.208 24.0692 112.217 24.3844 112.25 28.9929L112.217 30.4717L111.912 38.6064C111.515 48.2167 104.528 54.6679 96 54.6679C87.4688 54.6679 80.4813 48.2167 80.088 38.6064L79.7792 30.4717H79.7825Z" fill="#FFD7C2"/>
<path d="M95.9994 45.1613C94.2119 45.1613 92.5219 44.7063 91.0984 43.9458C90.6011 43.6696 90.1039 44.2578 90.4029 44.7421C91.5957 46.6531 93.6497 47.9368 95.9994 47.9368C98.3524 47.9368 100.406 46.6531 101.599 44.7453C101.898 44.2578 101.368 43.7053 100.904 43.9458C99.3935 44.7475 97.7091 45.1649 95.9994 45.1613Z" fill="#990838"/>
<path d="M94.8458 33.4196L93.2338 39.1071C92.8991 40.2706 93.6888 41.4341 94.8133 41.4341H97.1858C98.3103 41.4341 99.1033 40.2706 98.7653 39.1071L97.1533 33.4196C97.094 33.1579 96.9475 32.9242 96.7379 32.7567C96.5282 32.5893 96.2679 32.498 95.9996 32.498C95.7313 32.498 95.4709 32.5893 95.2613 32.7567C95.0516 32.9242 94.9051 33.1579 94.8458 33.4196Z" fill="#E5AF93"/>
<path d="M87.3351 29.8447C89.2006 29.8447 90.7151 31.135 91.6738 32.591C90.7573 32.877 89.8668 33.1337 88.9861 33.3872C87.6763 33.7642 86.3861 34.1347 85.0536 34.5962L83.4611 33.1662C83.307 33.0268 83.1858 32.8549 83.1064 32.6629C83.027 32.4709 82.9912 32.2636 83.0018 32.0561C83.0124 31.8486 83.069 31.6461 83.1675 31.4631C83.2661 31.2802 83.4041 31.1215 83.5716 30.9985C84.6818 30.2449 85.9932 29.8429 87.3351 29.8447ZM104.664 29.8447C102.795 29.8447 101.284 31.135 100.325 32.591C101.242 32.877 102.129 33.1337 103.01 33.3872C104.323 33.7642 105.613 34.1347 106.942 34.5962L108.535 33.1662C108.689 33.0271 108.81 32.8553 108.89 32.6635C108.97 32.4716 109.006 32.2644 108.996 32.0569C108.985 31.8494 108.929 31.6468 108.831 31.4637C108.733 31.2807 108.595 31.1217 108.428 30.9985C107.317 30.2451 106.006 29.8431 104.664 29.8447Z" fill="black"/>
<path d="M83.4325 33.6634C83.6811 32.6645 84.2574 31.7778 85.0692 31.1451C85.8811 30.5123 86.8816 30.17 87.911 30.1729C90.1632 30.1729 92.032 31.7946 92.4707 33.8811C92.4879 33.9928 92.481 34.1069 92.4503 34.2157C92.4197 34.3245 92.366 34.4254 92.293 34.5117C92.22 34.5979 92.1293 34.6675 92.0271 34.7157C91.9249 34.7639 91.8135 34.7896 91.7005 34.7911H84.3132C84.1759 34.7896 84.0407 34.7571 83.9177 34.6961C83.7947 34.6351 83.687 34.5471 83.6026 34.4387C83.5183 34.3304 83.4595 34.2044 83.4306 34.0701C83.4017 33.9359 83.4035 33.7968 83.4357 33.6634H83.4325ZM108.565 33.6634C108.316 32.6645 107.74 31.7778 106.928 31.1451C106.116 30.5123 105.116 30.17 104.086 30.1729C101.837 30.1729 99.9685 31.7946 99.5297 33.8811C99.5125 33.9925 99.5194 34.1064 99.5499 34.2149C99.5803 34.3235 99.6337 34.4242 99.7064 34.5105C99.779 34.5967 99.8693 34.6663 99.9711 34.7147C100.073 34.7631 100.184 34.7892 100.297 34.7911H107.687C107.825 34.7902 107.96 34.7581 108.084 34.6973C108.207 34.6365 108.315 34.5485 108.399 34.44C108.484 34.3314 108.543 34.2052 108.571 34.0707C108.6 33.9361 108.598 33.7969 108.565 33.6634Z" fill="white"/>
<path d="M85.6333 34.021C85.6333 32.3732 86.9495 31.0537 88.5972 31.0537C89.0535 31.058 89.5026 31.1667 89.9104 31.3713C90.3181 31.576 90.6736 31.8713 90.9497 32.2345C91.2257 32.5978 91.415 33.0194 91.5029 33.467C91.5909 33.9147 91.5753 34.3765 91.4572 34.8172H85.7405C85.6645 34.5588 85.6284 34.2903 85.6333 34.021ZM106.368 34.021C106.37 33.6308 106.294 33.2442 106.146 32.8834C105.997 32.5227 105.779 32.1949 105.503 31.919C105.227 31.6431 104.899 31.4246 104.539 31.2761C104.178 31.1276 103.791 31.052 103.401 31.0537C102.945 31.0585 102.496 31.1675 102.089 31.3724C101.682 31.5773 101.327 31.8726 101.051 32.2358C100.775 32.599 100.586 33.0204 100.498 33.4678C100.411 33.9152 100.426 34.3768 100.544 34.8172H106.258C106.335 34.5589 106.372 34.2905 106.368 34.021Z" fill="#7D4533"/>
<path d="M88.5704 32.3184C89.5031 32.3184 90.2734 33.0854 90.2734 34.0181C90.2734 34.3204 90.2181 34.5706 90.0524 34.8176H87.0624C86.9278 34.5573 86.8623 34.2668 86.872 33.9739C86.8818 33.6811 86.9666 33.3956 87.1182 33.1448C87.2698 32.8941 87.4833 32.6864 87.7381 32.5417C87.9929 32.397 88.2806 32.3201 88.5736 32.3184H88.5704ZM103.4 32.3184C102.95 32.3209 102.519 32.5007 102.2 32.8188C101.881 33.137 101.701 33.5678 101.697 34.0181C101.697 34.3204 101.782 34.5706 101.918 34.8176H104.908C105.043 34.5573 105.108 34.2668 105.098 33.9739C105.089 33.6811 105.004 33.3956 104.852 33.1448C104.701 32.8941 104.487 32.6864 104.232 32.5417C103.978 32.397 103.69 32.3201 103.397 32.3184H103.4Z" fill="black"/>
<path d="M87.7347 32.8677C87.7347 33.006 87.6797 33.1387 87.5819 33.2365C87.4841 33.3343 87.3514 33.3893 87.213 33.3893C87.0747 33.3893 86.942 33.3343 86.8442 33.2365C86.7464 33.1387 86.6914 33.006 86.6914 32.8677C86.6914 32.7297 86.7462 32.5975 86.8437 32.5C86.9412 32.4024 87.0735 32.3477 87.2114 32.3477C87.3493 32.3477 87.4816 32.4024 87.5791 32.5C87.6766 32.5975 87.7314 32.7297 87.7314 32.8677H87.7347ZM102.564 32.8677C102.564 33.0056 102.51 33.1378 102.412 33.2354C102.315 33.3329 102.182 33.3877 102.044 33.3877C101.906 33.3877 101.774 33.3329 101.677 33.2354C101.579 33.1378 101.524 33.0056 101.524 32.8677C101.524 32.7297 101.579 32.5975 101.677 32.5C101.774 32.4024 101.906 32.3477 102.044 32.3477C102.182 32.3477 102.315 32.4024 102.412 32.5C102.51 32.5975 102.564 32.7297 102.564 32.8677Z" fill="white"/>
<path d="M83.4424 28.4411C83.5221 28.574 83.6343 28.6843 83.7686 28.7616C83.9028 28.839 84.0545 28.8808 84.2094 28.8831C84.3551 28.8892 84.4991 28.8506 84.6222 28.7726C84.6482 28.7433 87.0662 27.3978 89.7312 27.8951C89.8468 27.9181 89.9658 27.9177 90.0812 27.894C90.1966 27.8704 90.3062 27.8239 90.4034 27.7572C90.5006 27.6906 90.5835 27.6053 90.6472 27.5061C90.7109 27.407 90.7542 27.2962 90.7744 27.1801C90.7979 27.0643 90.7979 26.9449 90.7745 26.8291C90.751 26.7133 90.7046 26.6034 90.638 26.5058C90.5713 26.4083 90.4858 26.3251 90.3864 26.2611C90.287 26.1972 90.1759 26.1538 90.0594 26.1336C86.7639 25.5323 83.8812 27.1508 83.7707 27.2321C83.6679 27.2881 83.5776 27.3643 83.5051 27.4562C83.4325 27.5481 83.3793 27.6536 83.3487 27.7666C83.318 27.8795 83.3105 27.9975 83.3266 28.1134C83.3427 28.2293 83.3821 28.3408 83.4424 28.4411ZM107.226 28.7726C107.36 28.8474 107.511 28.8855 107.665 28.8831C107.817 28.8842 107.966 28.8436 108.097 28.7656C108.228 28.6877 108.334 28.5755 108.406 28.4411C108.465 28.3406 108.504 28.2291 108.519 28.1134C108.535 27.9977 108.527 27.88 108.497 27.7673C108.466 27.6546 108.413 27.5492 108.341 27.4573C108.269 27.3653 108.18 27.2888 108.077 27.2321C107.967 27.1508 105.11 25.5323 101.785 26.1336C101.669 26.1538 101.558 26.1972 101.458 26.2611C101.359 26.3251 101.274 26.4083 101.207 26.5058C101.14 26.6034 101.094 26.7133 101.07 26.8291C101.047 26.9449 101.047 27.0643 101.07 27.1801C101.091 27.2965 101.134 27.4077 101.198 27.507C101.262 27.6064 101.345 27.6919 101.443 27.7586C101.54 27.8253 101.65 27.8717 101.766 27.8951C101.882 27.9186 102.001 27.9186 102.117 27.8951C104.782 27.3978 107.197 28.7433 107.226 28.7726Z" fill="#212121"/>
<path d="M50.5 97.5H79.75C79.75 94.9373 79.2449 92.3998 78.2635 90.0324C77.2821 87.6651 75.8437 85.5144 74.0305 83.7034C72.2174 81.8923 70.065 80.4565 67.6966 79.4778C65.3281 78.4992 62.7899 77.997 60.2273 78H50.5V97.5ZM141.5 97.5H112.25C112.25 94.9373 112.755 92.3998 113.737 90.0324C114.718 87.6651 116.156 85.5144 117.969 83.7034C119.783 81.8923 121.935 80.4565 124.303 79.4778C126.672 78.4992 129.21 77.997 131.773 78H141.5V97.5Z" fill="#F4F4F4"/>
</svg>
